<?xml version="1.0" standalone="no"?>
<!DOCTYPE svg PUBLIC "-//W3C//DTD SVG 20010904//EN"
 "http://www.w3.org/TR/2001/REC-SVG-20010904/DTD/svg10.dtd">
<svg version="1.0" xmlns="http://www.w3.org/2000/svg"
 width="260.000000pt" height="260.000000pt" viewBox="0 0 260.000000 260.000000"
 preserveAspectRatio="xMidYMid meet">
<metadata>
Created by potrace 1.11, written by Peter Selinger 2001-2013
</metadata>
<g transform="translate(0.000000,260.000000) scale(0.100000,-0.100000)"
fill="#000000" stroke="none">
<path d="M960 2574 c-468 -82 -833 -432 -936 -899 -22 -95 -26 -308 -8 -420
25 -165 96 -336 198 -478 73 -102 124 -156 216 -228 41 -33 81 -64 87 -70 25
-20 210 -108 268 -127 74 -25 192 -51 298 -66 27 -4 58 -9 69 -11 102 -20 580
-28 748 -12 327 30 443 58 468 113 23 50 10 89 -60 177 -52 66 -75 119 -85
199 -15 109 -5 227 28 345 34 121 49 233 50 354 0 63 -2 122 -5 130 -3 8 -8
32 -11 54 -15 105 -76 275 -133 375 -35 61 -121 174 -179 236 -149 157 -388
282 -627 327 -94 18 -285 18 -386 1z m283 -806 c33 -17 46 -39 47 -76 0 -28
-11 -43 -76 -106 l-76 -73 164 2 c173 1 207 -6 229 -46 16 -30 2 -86 -25 -104
-18 -12 -61 -16 -199 -17 l-177 -2 80 -82 c84 -85 92 -106 69 -158 -15 -32
-60 -51 -93 -40 -14 5 -98 81 -187 169 -214 213 -219 174 50 425 134 125 148
133 194 108z"/>
<path d="M1900 2406 c19 -15 75 -64 124 -109 242 -222 309 -302 390 -463 90
-179 127 -330 131 -531 3 -151 -15 -266 -64 -411 -28 -85 -95 -231 -111 -242
-15 -11 -17 -37 -3 -55 14 -20 14 -19 33 5 36 46 158 310 145 310 -3 0 0 12 6
28 11 27 22 82 36 169 9 58 9 301 0 361 -50 338 -245 654 -528 855 -37 26 -71
47 -77 47 -6 0 -12 3 -14 8 -1 4 -21 16 -43 27 -60 29 -63 30 -25 1z"/>
<path d="M279 560 c200 -291 521 -488 881 -539 68 -10 310 -7 369 4 164 31
391 116 446 167 19 17 -110 -5 -164 -28 -93 -41 -199 -71 -326 -91 -22 -4 -98
-6 -170 -6 -189 1 -348 36 -515 115 -128 61 -211 119 -330 231 -36 34 -81 75
-100 91 -19 16 -59 52 -89 80 l-54 51 52 -75z"/>
</g>
</svg>
